<?xml version="1.0" standalone="no"?>
<!DOCTYPE svg PUBLIC "-//W3C//DTD SVG 20010904//EN"
 "http://www.w3.org/TR/2001/REC-SVG-20010904/DTD/svg10.dtd">
<svg version="1.0" xmlns="http://www.w3.org/2000/svg"
 width="300.000000pt" height="378.000000pt" viewBox="0 0 300.000000 378.000000"
 preserveAspectRatio="xMidYMid meet">
<metadata>
Created by potrace 1.10, written by Peter Selinger 2001-2011
</metadata>
<g transform="translate(0.000000,378.000000) scale(0.100000,-0.100000)"
fill="#000000" stroke="none">
<path d="M1666 3599 c-169 -58 -266 -128 -306 -221 -18 -41 -24 -78 -28 -162
-4 -105 -6 -112 -38 -155 -18 -26 -35 -58 -39 -73 -6 -24 -1 -31 54 -71 33
-25 57 -47 54 -51 -4 -3 1 -6 11 -6 13 0 15 -4 7 -19 -6 -10 -34 -25 -69 -35
-71 -20 -95 -42 -88 -82 5 -24 4 -24 -6 5 -16 48 4 81 62 101 69 24 79 31 38
26 -62 -8 -107 -34 -116 -70 -11 -38 6 -102 41 -154 49 -76 44 -87 -51 -98
-55 -6 -65 -10 -77 -34 -13 -26 -11 -51 11 -135 4 -16 3 -17 -5 -5 -16 23 -33
119 -27 146 7 28 50 50 113 60 50 8 55 14 11 14 -42 0 -96 -17 -120 -38 -37
-32 -17 -165 33 -218 l20 -21 -49 -6 c-61 -7 -159 -41 -183 -63 -26 -24 -25
-117 1 -186 25 -66 25 -68 -2 -69 -39 -1 -131 -35 -142 -52 -13 -20 7 -144 25
-161 9 -8 10 -8 5 1 -11 20 -26 127 -20 145 5 17 118 58 158 58 34 0 5 -18
-56 -35 -87 -24 -91 -29 -84 -91 3 -29 9 -59 12 -68 11 -30 21 -16 20 28 0 24
-4 42 -8 39 -5 -2 -8 6 -8 19 0 24 38 56 49 41 3 -4 14 -9 24 -9 10 -1 16 0
13 3 -3 3 2 12 10 20 32 32 21 3 -33 -90 -32 -53 -60 -93 -63 -89 -3 4 -30 15
-61 26 -44 14 -61 16 -77 7 -25 -13 -52 -61 -51 -88 0 -10 9 1 19 25 11 23 27
45 36 49 23 9 124 -25 124 -42 0 -13 -32 -58 -103 -147 -19 -23 -39 -38 -52
-38 -32 0 -135 48 -168 78 -28 27 -35 44 -16 40 6 -2 13 5 14 14 3 14 0 16
-15 8 -38 -20 -40 19 -5 82 l25 44 -30 22 c-16 12 -34 22 -40 22 -16 0 -12
-115 7 -162 27 -68 54 -98 118 -128 77 -37 108 -44 133 -31 17 9 34 1 110 -49
133 -87 303 -141 551 -176 205 -28 530 -13 741 35 61 14 160 48 176 61 21 18
24 -4 8 -71 -9 -35 -17 -72 -19 -82 -2 -10 -24 -58 -49 -107 -26 -49 -46 -93
-46 -97 0 -23 64 87 90 156 l17 44 38 -59 c48 -74 97 -181 119 -259 9 -33 20
-68 23 -78 4 -16 1 -18 -17 -12 -48 15 -271 3 -387 -21 -42 -8 -59 21 -25 44
12 8 22 18 22 23 0 5 -34 -14 -77 -43 -84 -56 -187 -97 -269 -105 l-52 -6 -4
64 c-2 37 2 81 9 103 15 46 15 46 4 46 -5 0 -12 -8 -14 -18 -3 -9 -5 2 -6 26
-2 72 -16 46 -17 -31 0 -39 -4 -99 -8 -132 -7 -48 -10 -57 -19 -44 -37 50
-184 79 -402 79 -152 0 -239 -10 -287 -35 -31 -15 -47 -9 -48 20 0 5 -13 36
-30 70 -40 81 -87 242 -99 340 -9 74 -5 138 14 250 4 28 3 36 -3 26 -22 -31
-35 -145 -29 -248 6 -112 36 -232 89 -358 51 -121 72 -185 62 -195 -29 -27
-255 47 -367 121 -67 43 -197 170 -197 192 0 4 -11 24 -24 45 -55 88 -96 254
-96 392 0 64 23 199 44 255 61 161 109 239 206 326 84 76 128 109 146 109 7 0
14 -15 17 -32 6 -41 0 -49 -11 -17 l-9 23 -32 -31 c-29 -29 -42 -73 -22 -73
11 0 41 -62 35 -72 -9 -15 -22 -8 -27 15 -4 12 -13 31 -20 41 -14 19 -16 17
-42 -33 -29 -59 -27 -81 9 -81 13 0 34 -9 47 -19 l24 -20 -30 -57 c-16 -32
-31 -61 -33 -65 -2 -5 13 -2 34 7 55 23 77 13 97 -43 9 -26 17 -62 17 -79 0
-34 25 -53 44 -34 7 7 7 11 1 10 -34 -7 -38 0 -31 53 4 31 3 47 -2 39 -7 -10
-11 -7 -16 15 -4 15 -14 39 -23 51 -12 20 -20 23 -49 17 -37 -6 -41 0 -19 29
21 28 19 73 -5 88 -18 12 -18 13 12 38 25 21 30 31 25 52 -4 15 -14 33 -22 42
-19 19 -19 26 0 26 9 0 29 7 46 16 24 12 29 19 23 37 -4 12 -7 31 -8 42 -1 15
-9 21 -32 23 -27 3 -45 -9 -137 -93 -144 -129 -195 -217 -247 -419 -15 -58
-20 -111 -20 -200 0 -149 22 -242 85 -370 46 -92 144 -216 171 -216 8 0 14 -3
14 -7 0 -5 26 -25 58 -45 98 -63 251 -118 328 -118 l44 0 -4 -140 c-3 -77 -10
-156 -17 -175 -26 -70 23 -97 217 -126 106 -16 176 -20 294 -17 152 3 157 4
222 36 55 27 69 39 78 66 12 37 -4 92 -37 128 -13 15 -16 40 -15 135 1 81 5
119 14 124 6 4 45 11 85 15 78 7 103 -2 103 -37 0 -10 4 -28 9 -41 5 -13 14
-59 21 -103 10 -71 46 -225 52 -230 72 -47 130 -63 269 -75 167 -14 464 13
514 47 11 7 30 13 42 13 33 0 48 34 34 80 -14 48 -95 124 -165 155 -51 23 -55
27 -70 79 -9 30 -16 64 -16 77 0 12 -6 30 -14 38 -19 22 -28 68 -15 76 36 23
-72 309 -165 434 -18 24 -23 39 -17 55 5 11 14 61 21 110 15 104 8 229 -19
362 -10 49 -17 92 -15 95 2 3 43 9 91 13 49 4 104 11 124 17 33 8 43 5 95 -26
83 -50 128 -45 173 21 15 21 35 37 53 41 47 9 132 106 126 145 -6 41 -62 59
-241 74 -259 22 -318 32 -347 58 -14 12 -50 35 -80 49 -97 47 -115 62 -128
104 -7 23 -19 46 -27 53 -27 22 -18 86 21 153 37 63 90 136 109 149 5 4 51 8
100 8 112 1 209 21 240 50 38 36 80 180 80 275 0 107 -23 167 -76 201 -43 27
-100 32 -118 10 -9 -11 -8 -15 5 -20 22 -8 26 -8 19 4 -13 21 59 9 91 -15 69
-52 81 -199 29 -348 -30 -86 -50 -110 -87 -103 -19 4 -30 0 -36 -11 -6 -11
-11 -12 -16 -4 -4 6 -12 11 -17 11 -6 0 -7 -4 -4 -10 7 -11 -15 -13 -105 -10
-30 1 -58 6 -61 11 -3 6 -11 3 -19 -6 -20 -24 -95 -19 -227 15 -127 33 -186
62 -227 111 -32 38 -32 47 -1 89 14 18 23 35 22 37 -2 1 -29 -22 -60 -52 -31
-30 -53 -55 -48 -55 5 0 2 -15 -7 -32 -9 -18 -18 -60 -20 -93 -3 -52 0 -64 22
-90 13 -16 27 -27 32 -23 4 4 -4 16 -17 27 -28 24 -26 25 21 11 43 -13 350
-13 405 0 22 5 41 7 43 5 3 -2 -7 -18 -21 -34 -14 -17 -42 -59 -64 -93 -32
-54 -38 -72 -39 -123 -1 -56 -2 -59 -28 -66 -40 -11 -56 -28 -56 -60 0 -19 -5
-29 -15 -29 -8 0 -15 7 -15 15 0 33 -41 43 -205 48 -88 3 -171 7 -185 11 -14
3 -47 11 -75 17 -63 14 -214 85 -221 104 -3 7 16 57 41 111 59 123 59 123 90
239 24 91 24 97 9 128 -10 17 -19 61 -22 97 -5 72 -6 70 93 148 30 22 65 30
65 13 0 -5 19 -16 43 -25 79 -29 116 -35 150 -25 17 5 59 11 92 13 37 2 83 14
120 31 52 24 76 28 178 31 66 2 130 7 143 10 15 4 51 -3 88 -15 79 -27 92 -26
41 1 -29 16 -65 24 -130 28 l-90 5 41 28 c54 36 108 121 94 146 -15 30 -38 35
-168 37 l-123 2 -53 50 c-100 94 -178 113 -300 71z m183 -5 c1 -1 -16 -8 -39
-14 -30 -8 -39 -15 -32 -22 8 -8 24 -6 56 4 l46 15 57 -46 c31 -25 58 -51 60
-57 2 -6 -14 -15 -34 -22 -28 -8 -30 -10 -8 -6 196 32 345 20 345 -27 0 -25
-17 -24 -25 1 -9 27 -42 33 -109 21 -71 -13 -136 -48 -220 -117 -86 -71 -197
-127 -252 -127 -23 0 -70 12 -107 28 l-66 28 -50 -32 c-27 -18 -55 -39 -61
-47 -16 -19 -28 -18 -33 4 -2 9 -3 4 -3 -12 1 -17 -5 -31 -13 -34 -12 -4 -13
11 -8 89 7 102 18 144 54 201 55 89 311 200 413 180 14 -3 27 -6 29 -8z m407
-176 c4 -6 -1 -17 -11 -24 -16 -12 -22 -11 -44 9 l-26 22 20 -24 c12 -15 16
-25 9 -28 -6 -2 -20 -10 -30 -18 -18 -14 -17 -14 11 -15 l30 0 -36 -35 c-30
-30 -39 -34 -60 -27 -17 7 -30 5 -46 -5 -12 -8 -32 -16 -45 -18 -53 -9 -84
-17 -105 -27 -11 -6 -27 -8 -35 -5 -9 4 -6 8 10 12 12 4 22 12 23 19 0 6 18
26 40 45 36 31 42 33 66 22 14 -6 28 -10 30 -7 2 2 -5 7 -16 11 -12 3 -21 10
-21 15 0 11 98 11 105 -1 10 -16 25 -10 25 10 0 10 -7 24 -15 31 -9 7 -14 18
-12 24 7 22 121 34 133 14z m-915 -372 c-12 -12 -30 -40 -40 -62 -16 -32 -21
-36 -27 -21 -8 22 3 48 47 107 31 41 34 43 37 22 2 -14 -5 -33 -17 -46z m46
-122 l5 -49 -35 40 c-26 28 -33 42 -24 47 7 4 8 8 3 8 -5 0 -3 7 4 16 20 23
41 -4 47 -62z m395 -89 c22 -25 46 -45 53 -45 8 0 17 -5 21 -11 10 -17 -54 -1
-93 23 -25 15 -33 27 -33 49 0 16 3 29 6 29 4 0 24 -20 46 -45z m-441 -117
c-12 -35 -28 -74 -35 -87 -13 -23 -13 -22 -40 28 -18 35 -24 59 -20 77 4 14 9
23 12 20 3 -3 11 -1 19 5 7 6 13 9 13 6 0 -3 15 0 33 8 17 7 34 12 36 10 1 -2
-7 -32 -18 -67z m419 41 c19 -6 82 -15 140 -20 147 -13 251 -34 225 -45 -31
-13 -355 -10 -388 4 -33 14 -44 37 -27 57 7 8 13 15 14 15 1 0 17 -5 36 -11z
m-554 -311 c-15 -29 -29 -52 -31 -50 -15 7 -26 0 -21 -13 3 -8 1 -15 -4 -15
-14 0 -23 45 -15 70 4 12 1 27 -5 35 -10 12 -9 15 4 15 9 0 16 -5 16 -11 0 -5
4 -8 10 -4 5 3 7 12 3 21 -4 12 0 14 21 8 18 -4 26 -2 26 7 0 10 3 10 11 2 9
-9 5 -25 -15 -65z m77 -7 c113 -77 276 -117 492 -120 77 -1 144 -6 149 -11 4
-4 13 -28 18 -52 14 -66 36 -183 35 -183 -1 0 -11 -5 -22 -11 -16 -9 -20 -21
-19 -58 1 -25 9 -58 19 -72 13 -20 14 -28 4 -40 -7 -8 -18 -13 -24 -10 -7 2
-18 -1 -24 -7 -8 -8 -11 -8 -11 2 0 9 -6 11 -17 6 -33 -13 -67 -13 -88 0 -11
7 -40 16 -65 19 -64 9 -87 -19 -78 -96 1 -10 4 -18 8 -18 4 0 7 -16 8 -36 1
-19 11 -49 23 -65 20 -29 24 -30 88 -28 36 1 74 6 83 11 9 4 41 10 70 12 29 2
53 5 53 6 0 7 74 6 93 -1 20 -8 23 -7 17 10 -5 18 -3 19 30 10 20 -6 39 -8 43
-5 3 3 -2 6 -12 6 -9 0 -15 4 -12 9 4 5 14 8 24 7 9 -2 20 1 23 7 10 14 29 -1
29 -23 0 -10 4 -21 8 -24 5 -3 5 18 1 47 -4 29 -8 60 -8 70 -1 9 -5 17 -10 17
-5 0 -8 -13 -7 -30 0 -16 -3 -29 -7 -30 -9 0 -19 85 -18 147 1 21 -3 32 -12
30 -7 -1 -13 10 -13 28 -1 25 -20 87 -32 104 -1 3 -22 6 -45 7 -88 5 -94 11
-101 113 -2 30 -10 57 -17 62 -10 6 -3 9 21 11 19 1 44 2 55 3 11 1 26 5 33 9
8 5 19 1 28 -10 13 -17 14 -17 9 -1 -14 49 -11 48 -57 27 -49 -22 -57 -20 -51
14 6 31 19 42 60 51 30 6 33 4 48 -32 19 -45 81 -252 94 -314 6 -24 14 -62 20
-84 16 -59 50 -276 61 -384 10 -106 8 -113 -49 -137 -137 -59 -321 -92 -551
-100 -149 -6 -199 -3 -340 16 -156 21 -315 59 -405 97 -57 24 -176 92 -202
116 l-22 20 48 56 c46 52 191 293 206 341 4 12 9 20 11 17 2 -2 -5 -39 -16
-83 -12 -43 -18 -89 -15 -102 3 -12 0 -32 -6 -43 -8 -15 -8 -19 0 -15 7 4 11
-1 11 -12 0 -35 30 -106 57 -135 15 -15 44 -32 64 -39 20 -6 48 -21 61 -33 33
-31 62 -45 92 -45 37 0 56 10 56 30 0 16 6 18 54 13 48 -5 55 -3 65 16 6 11 9
32 5 46 -6 23 -3 25 24 25 16 0 35 7 42 15 22 27 -34 110 -120 177 -32 25 -33
29 -17 38 63 39 118 118 131 190 7 38 8 40 -35 -55 -9 -22 -38 -60 -63 -85
l-46 -44 0 30 c0 19 8 38 21 50 12 10 49 55 82 99 33 44 67 86 76 93 9 7 15
18 13 23 -4 18 48 8 68 -13 11 -12 20 -18 20 -14 0 4 14 -2 30 -14 17 -12 30
-18 30 -13 0 4 5 1 10 -7 9 -13 10 -13 10 0 0 31 -31 60 -71 66 -29 5 -39 11
-39 25 0 29 15 30 54 4 46 -31 50 -31 70 0 18 28 15 31 -13 13 -15 -9 -22 -8
-35 4 -9 9 -29 19 -45 23 -22 5 -28 10 -24 26 3 10 8 19 12 20 51 6 89 2 103
-9 11 -9 18 -10 23 -3 3 7 44 11 98 11 51 0 99 5 107 10 10 7 -27 10 -115 10
-71 0 -147 5 -169 11 -36 10 -40 9 -72 -22 -18 -18 -43 -53 -54 -78 -29 -64
-34 -72 -45 -74 -5 -1 -17 -16 -26 -34 -17 -33 -110 -151 -120 -152 -3 -1 -11
10 -17 23 -17 38 -73 97 -121 128 -47 30 -106 37 -142 18 -10 -6 -19 -8 -19
-5 0 15 37 76 91 152 33 44 59 85 59 91 0 5 14 34 30 65 17 31 30 63 30 72 0
21 5 19 53 -14z m-163 -176 c-6 -8 -26 -16 -43 -20 -18 -3 -53 -16 -80 -27
-38 -18 -49 -28 -57 -57 -5 -20 -10 -42 -10 -49 0 -7 -5 -10 -10 -7 -14 9 -3
95 15 115 15 17 90 46 139 54 16 3 31 7 34 10 11 12 22 -7 12 -19z m1086 -34
c25 -17 60 -33 76 -36 l30 -7 -21 -22 c-34 -36 -54 -97 -54 -163 0 -35 -1 -63
-2 -63 -2 0 -13 42 -25 93 -12 50 -30 119 -41 151 -20 61 -22 76 -14 76 2 0
25 -13 51 -29z m-1136 -21 c0 -5 -9 -10 -21 -10 -15 0 -20 -6 -18 -22 1 -13
-3 -34 -9 -48 -6 -14 -21 -53 -33 -87 -12 -35 -23 -63 -25 -63 -3 0 -4 12 -4
28 1 37 -5 70 -13 78 -10 10 5 68 22 84 16 16 80 49 94 50 4 0 7 -4 7 -10z
m1336 -75 c54 -9 167 -20 249 -25 142 -8 236 -28 251 -51 9 -15 -43 -77 -78
-95 -37 -19 -149 -11 -173 13 -12 11 -21 12 -43 5 -24 -9 -25 -11 -5 -11 12
-1 26 -7 30 -15 4 -8 26 -16 47 -18 57 -5 68 -29 31 -68 -16 -17 -39 -33 -51
-36 -21 -5 -93 24 -124 51 -11 10 -27 11 -60 5 -25 -5 -78 -9 -117 -10 -68 0
-74 2 -90 27 -26 39 -24 135 4 196 12 26 24 47 26 47 2 0 48 -7 103 -15z
m-1263 -79 c73 -32 152 -129 160 -197 l6 -46 -67 -6 c-69 -6 -129 -23 -119
-34 4 -3 20 0 37 7 49 20 138 9 188 -24 39 -26 112 -114 112 -135 0 -5 -7 -12
-16 -15 -29 -11 -53 -6 -64 14 -6 11 -8 20 -4 20 3 0 -12 15 -34 33 -23 17
-41 38 -41 45 -1 6 -9 12 -18 12 -12 0 -6 -12 24 -42 42 -45 66 -84 77 -130 8
-34 -10 -46 -60 -40 -28 3 -40 12 -53 34 -22 41 -61 88 -72 88 -6 0 3 -17 19
-37 32 -42 55 -100 46 -115 -4 -6 -25 -8 -48 -5 -29 4 -49 15 -71 39 -16 18
-39 40 -49 48 -18 14 -19 13 -13 -2 11 -29 -13 -20 -53 20 -46 45 -60 92 -60
196 0 85 26 191 61 251 24 40 56 45 112 21z m899 -27 c4 -19 10 -47 14 -64 6
-27 5 -29 -9 -17 -9 8 -19 33 -22 57 -6 36 -10 42 -26 38 -22 -6 -25 -19 -6
-26 9 -4 9 -8 -2 -15 -10 -8 -11 -14 -1 -32 10 -18 9 -25 -3 -37 -13 -13 -16
-10 -21 28 -4 24 -9 56 -12 71 -5 24 -2 27 28 31 49 6 52 4 60 -34z m66 9 c1
-18 4 -49 8 -69 3 -21 1 -40 -4 -43 -9 -5 -62 92 -62 113 0 23 18 9 28 -21
l12 -33 -6 37 c-3 24 0 38 8 41 7 3 13 6 13 6 1 1 2 -14 3 -31z m-1614 -145
c-10 -7 -27 -13 -38 -13 -18 0 -18 1 4 25 19 20 26 22 38 13 12 -10 11 -14 -4
-25z m1531 7 c0 -22 -29 -18 -33 3 -3 14 1 18 15 15 10 -2 18 -10 18 -18z
m131 -14 c15 -15 21 -146 7 -146 -5 0 -18 -3 -30 -6 -21 -6 -23 -3 -23 28 0
21 9 47 21 62 26 33 15 51 -21 33 -21 -11 -24 -19 -24 -72 -1 -42 -5 -60 -14
-60 -9 0 -14 23 -16 78 -2 61 0 77 10 73 7 -3 16 -1 19 4 3 5 12 7 19 4 8 -3
17 -1 21 5 8 14 14 14 31 -3z m-358 -24 c3 -9 -3 -11 -22 -6 -14 3 -33 4 -41
0 -23 -8 -7 -33 26 -40 38 -7 37 -26 -1 -26 -28 0 -30 -2 -24 -27 12 -55 12
-56 50 -50 25 4 34 2 31 -6 -4 -14 -86 -21 -105 -9 -7 5 -17 40 -21 78 -4 38
-12 77 -16 87 -7 16 -2 18 55 15 41 -2 65 -8 68 -16z m232 -11 c5 -11 10 -47
10 -80 0 -48 -3 -61 -15 -61 -12 0 -15 14 -15 64 0 35 -3 71 -6 80 -9 23 13
20 26 -3z m-121 -3 c11 -10 14 -10 18 0 7 19 41 14 53 -8 14 -27 9 -132 -7
-137 -8 -3 -13 15 -15 58 -2 39 -8 64 -15 67 -16 5 -18 -90 -3 -117 8 -15 5
-18 -13 -17 -20 1 -23 8 -27 61 -4 44 -9 60 -20 60 -12 0 -14 -12 -12 -62 3
-53 1 -63 -12 -63 -21 0 -23 9 -29 93 -5 68 -5 69 18 63 13 -3 27 -2 30 4 8
13 18 13 34 -2z m508 -1042 c1 -1 5 -20 8 -41 l7 -40 -134 -1 c-121 -1 -290
-26 -407 -60 -19 -6 -22 -4 -16 6 6 10 4 12 -8 7 -14 -5 -27 10 -27 34 0 29
199 81 375 98 73 7 193 6 202 -3z m-433 -5 c3 -5 -7 -11 -22 -13 -15 -3 -36
-8 -47 -12 -11 -4 -4 2 15 13 40 23 47 25 54 12z m-576 -27 c115 -18 162 -43
162 -88 0 -23 -3 -27 -17 -21 -165 67 -550 75 -664 15 -17 -10 -19 -7 -19 29
0 47 16 60 94 71 94 14 342 11 444 -6z m-11 -90 c51 -8 111 -21 133 -30 l40
-16 0 -79 c0 -43 -4 -79 -8 -79 -8 0 -145 92 -167 112 -5 5 19 -2 55 -15 36
-14 65 -31 65 -38 0 -23 32 -22 38 1 6 24 -4 30 -93 58 -150 46 -352 51 -500
13 -64 -16 -65 -17 -68 -54 -2 -20 -1 -37 3 -37 15 0 131 34 140 42 5 4 -5 8
-24 8 -18 0 -30 4 -26 10 3 5 13 6 22 3 10 -4 14 -2 10 4 -11 17 17 23 147 30
126 6 154 0 52 -12 -63 -8 -133 -35 -181 -70 -16 -13 -55 -33 -85 -46 -30 -13
-60 -30 -66 -38 -9 -11 -13 8 -16 85 -3 54 -3 104 -1 110 6 16 108 45 188 54
86 9 219 3 342 -16z m442 -5 c8 -24 8 -36 -1 -46 -15 -18 -25 -6 -33 40 -6 29
-4 37 8 37 8 0 20 -14 26 -31z m609 19 c7 -7 12 -21 12 -32 0 -20 -5 -21 -172
-21 -158 -1 -181 -3 -273 -29 -54 -15 -117 -37 -139 -48 -31 -16 -40 -17 -47
-6 -35 55 30 85 281 128 125 21 320 26 338 8z m-178 -63 c0 -2 -18 -9 -39 -15
-52 -14 -118 -51 -164 -94 -21 -19 -58 -45 -83 -57 -25 -11 -61 -37 -81 -55
-20 -19 -38 -33 -39 -31 -2 2 -7 24 -10 49 l-6 45 63 25 c35 14 90 33 122 42
49 14 56 19 48 34 -8 14 -4 20 17 30 38 17 172 38 172 27z m204 -21 c9 -24 5
-24 -29 -3 l-30 19 26 0 c16 0 30 -7 33 -16z m-63 -6 c21 -6 46 -19 55 -30 16
-17 16 -18 -14 -18 -18 0 -32 -4 -32 -10 0 -22 -36 -8 -74 28 -21 20 -35 30
-30 22 18 -32 13 -40 -29 -41 -23 -1 -46 -1 -51 0 -4 1 -27 -7 -50 -18 -22
-10 -55 -23 -73 -29 -31 -10 -32 -10 -20 9 25 42 163 96 251 98 16 1 46 -4 67
-11z m-344 -25 c2 -6 -15 -13 -38 -17 -23 -4 -51 -12 -63 -18 -29 -17 -56 -20
-56 -7 0 14 68 41 82 33 7 -5 8 -2 3 6 -6 10 0 12 23 8 18 -2 29 0 25 5 -3 5
0 8 7 5 8 -2 15 -9 17 -15z m-655 -28 c21 -14 38 -29 38 -34 0 -9 -50 6 -87
27 -26 15 -56 17 -33 2 23 -14 -13 -24 -68 -17 -48 6 -154 -4 -184 -18 -10 -4
-18 -3 -18 2 0 8 78 51 120 67 8 3 55 4 105 1 73 -4 96 -9 127 -30z m976 -22
c27 -4 42 -2 42 5 0 6 14 10 30 10 35 -1 40 -24 12 -59 -19 -22 -20 -22 -98
-10 -98 16 -188 40 -180 48 11 11 89 21 121 17 17 -3 49 -7 73 -11z m-1090
-23 c12 0 46 2 75 3 65 3 69 -15 12 -55 l-41 -29 -69 15 c-39 8 -90 22 -114
30 -49 18 -70 21 -55 8 13 -13 142 -50 195 -58 54 -7 82 4 120 48 l27 31 44
-17 c25 -10 57 -29 73 -43 34 -32 68 -107 60 -132 -7 -24 -70 -58 -132 -72
-67 -15 -342 -12 -452 5 -85 14 -128 26 -88 26 28 0 112 41 129 63 22 28 23
75 1 99 -15 17 -15 18 1 18 10 0 14 5 11 11 -4 5 -19 8 -33 5 -31 -7 -61 7
-43 19 30 18 113 30 181 28 41 -2 85 -3 98 -3z m1285 -24 c32 -19 71 -48 87
-65 31 -31 39 -47 18 -36 -7 4 -5 0 4 -7 20 -17 33 -64 20 -72 -5 -3 -23 16
-39 43 -32 51 -72 86 -140 121 -28 14 -40 26 -36 36 8 21 23 17 86 -20z m-343
2 c47 -15 95 -21 170 -23 94 -2 110 -5 145 -27 58 -37 98 -77 92 -92 -3 -8 1
-13 11 -12 9 0 18 -7 20 -18 2 -10 0 -16 -6 -12 -5 3 -15 0 -21 -8 -6 -7 -26
-17 -44 -20 -43 -10 -271 -35 -275 -31 -2 1 8 14 22 28 45 45 30 84 -47 124
-29 15 -57 28 -64 29 -65 12 -118 26 -123 34 -4 7 -18 6 -39 -1 -22 -8 -36 -8
-43 -1 -9 9 15 21 92 46 27 8 44 6 110 -16z m-1203 -40 c62 -43 57 -92 -14
-130 -68 -37 -121 -50 -146 -36 -19 10 -18 12 20 30 49 23 79 54 88 91 6 21 4
27 -9 27 -9 0 -15 -5 -13 -12 1 -6 -22 -25 -50 -42 -32 -19 -53 -38 -53 -49 0
-10 -5 -15 -10 -12 -13 8 -3 43 19 69 19 22 112 86 125 86 5 0 25 -10 43 -22z
m1078 -18 c74 -12 186 -50 223 -76 28 -20 28 -50 0 -68 -28 -18 -135 -46 -176
-46 -29 0 -30 1 -25 41 5 34 2 44 -23 70 -16 17 -49 39 -73 50 l-44 19 -54
-54 c-53 -53 -76 -59 -51 -12 7 13 33 40 57 61 34 28 51 35 70 31 14 -3 58
-10 96 -16z m-71 -63 c50 -28 80 -68 72 -95 -6 -17 -13 -19 -54 -15 -26 2 -56
8 -67 13 -11 5 -29 10 -39 12 -10 2 -24 11 -30 21 -9 15 -5 24 26 53 21 18 41
34 45 34 5 0 26 -10 47 -23z"/>
<path d="M1826 3540 c-16 -5 -33 -7 -38 -4 -11 7 -10 -7 1 -25 7 -11 13 -11
32 3 13 9 34 16 46 16 13 0 23 5 23 10 0 12 -24 12 -64 0z"/>
<path d="M1541 3495 c-84 -46 -90 -51 -117 -110 -18 -38 -24 -68 -24 -125 0
-58 3 -71 12 -62 7 7 12 32 13 57 0 25 3 45 7 45 3 0 4 8 1 18 -7 27 29 102
48 102 9 0 19 9 22 21 4 16 10 19 28 14 14 -5 19 -3 15 3 -3 6 -2 13 4 17 5 3
11 -2 11 -12 3 -38 0 -105 -5 -110 -3 -3 4 -15 15 -26 19 -21 19 -21 -8 -44
-35 -28 -24 -30 19 -3 39 24 42 24 61 5 13 -12 50 -19 125 -24 7 -1 10 -6 6
-12 -4 -6 20 3 52 21 86 46 102 65 31 35 -41 -17 -183 -20 -207 -5 -18 12 -17
12 68 14 56 1 80 8 152 43 47 23 94 49 105 57 19 16 19 16 -10 10 -68 -15
-160 -52 -158 -62 2 -7 -10 -12 -27 -12 -17 0 -39 -6 -50 -12 -17 -11 -22 -10
-29 1 -7 11 -13 11 -32 1 -13 -7 -27 -17 -30 -23 -4 -5 -15 -5 -28 2 -17 10
-21 21 -21 64 1 29 7 70 15 92 25 67 24 67 -64 20z"/>
<path d="M1892 3504 c2 -9 -7 -20 -19 -25 -17 -6 -23 -5 -23 6 0 8 -7 15 -15
15 -8 0 -15 -3 -15 -7 1 -20 20 -34 53 -40 37 -6 37 -6 37 31 0 20 -5 36 -10
36 -6 0 -10 -7 -8 -16z"/>
<path d="M1765 3385 c-27 -13 -46 -25 -40 -25 17 0 95 35 95 43 0 10 2 10 -55
-18z"/>
<path d="M1257 2349 c-40 -52 -37 -67 4 -21 40 44 50 60 42 65 -4 2 -25 -18
-46 -44z"/>
<path d="M1394 2299 c-8 -17 -33 -50 -54 -73 -42 -46 -120 -155 -120 -168 0
-16 17 -7 27 15 6 12 42 60 80 107 69 85 110 150 92 150 -4 0 -16 -14 -25 -31z"/>
<path d="M1470 2305 c14 -8 36 -14 50 -14 23 0 23 1 5 8 -11 4 -33 11 -50 15
l-30 6 25 -15z"/>
<path d="M1257 2303 c-4 -6 2 -18 13 -28 11 -10 20 -29 20 -42 0 -12 5 -23 10
-23 6 0 10 11 10 25 0 13 8 29 18 34 9 6 12 11 5 11 -6 0 -15 -5 -19 -11 -4
-7 -15 -1 -29 17 -12 16 -24 23 -28 17z"/>
<path d="M2016 2180 c3 -30 10 -59 14 -63 4 -5 3 18 -2 50 -12 74 -21 84 -12
13z"/>
<path d="M1708 2152 c-21 -43 -21 -116 -1 -100 7 6 10 14 7 20 -3 5 0 31 6 59
15 62 10 69 -12 21z"/>
<path d="M2246 1546 c2 -49 6 -92 9 -94 8 -9 5 100 -5 143 -6 30 -7 17 -4 -49z"/>
<path d="M2749 1984 c-8 -10 -8 -14 0 -14 6 0 11 4 11 8 0 5 15 6 33 4 17 -3
29 -1 25 3 -14 15 -56 14 -69 -1z"/>
<path d="M1011 1863 c-6 -21 -10 -56 -10 -78 2 -40 2 -40 9 10 4 28 11 62 14
78 10 41 -2 33 -13 -10z"/>
<path d="M1200 1759 c0 -5 4 -8 9 -5 5 4 21 2 35 -4 21 -7 26 -6 26 5 0 10
-11 15 -35 15 -19 0 -35 -5 -35 -11z"/>
<path d="M1217 485 c17 -8 51 -17 75 -20 l43 -4 -50 13 c-102 26 -101 26 -68
11z"/>
<path d="M1433 439 c28 -16 137 -137 137 -151 0 -5 5 -6 11 -3 6 4 8 14 5 22
-5 11 -1 14 11 9 15 -4 15 -3 -1 7 -11 7 -33 24 -50 38 -28 25 -29 29 -18 55
12 29 12 29 -6 8 l-18 -21 -28 23 c-15 13 -35 24 -44 24 -15 -1 -15 -2 1 -11z"/>
<path d="M2150 3199 c-12 -9 -11 -10 8 -6 12 3 22 1 22 -3 0 -12 33 -5 38 8 5
15 -47 16 -68 1z"/>
<path d="M2267 3193 c-11 -10 -8 -25 3 -18 10 6 83 -10 113 -26 13 -7 17 -5
17 9 0 29 -111 58 -133 35z"/>
<path d="M2432 3141 c27 -35 38 -38 38 -13 0 11 -11 24 -25 30 -38 17 -39 15
-13 -17z"/>
<path d="M2530 3131 c0 -8 11 -29 25 -47 14 -18 20 -34 14 -36 -6 -2 -2 -11 9
-21 19 -17 19 -17 12 24 -7 40 -60 110 -60 80z"/>
<path d="M1410 3052 c0 -17 5 -32 10 -32 6 0 10 -15 10 -34 0 -19 5 -38 10
-41 15 -10 1 95 -16 120 -13 18 -14 17 -14 -13z"/>
<path d="M2579 2988 c0 -2 -2 -25 -5 -53 -3 -27 -10 -55 -16 -62 -7 -9 -7 -13
1 -13 6 0 15 10 20 23 13 36 20 107 10 107 -5 0 -9 -1 -10 -2z"/>
<path d="M1500 2965 c2 -29 39 -79 67 -90 37 -16 38 4 0 20 -12 6 -27 21 -33
33 -14 28 -34 50 -34 37z"/>
<path d="M2085 2610 c3 -5 -5 -21 -19 -35 -29 -29 -31 -35 -13 -35 14 0 57 52
57 70 0 5 -7 10 -16 10 -8 0 -12 -4 -9 -10z"/>
<path d="M1886 2497 c23 -13 161 -22 149 -9 -5 5 -45 12 -87 14 -44 2 -71 0
-62 -5z"/>
<path d="M358 1912 c-65 -85 -86 -130 -60 -125 6 2 12 -6 12 -17 0 -11 -7 -20
-16 -20 -8 0 -12 4 -9 10 3 6 -1 7 -9 4 -9 -3 -16 -13 -16 -21 0 -8 5 -11 12
-7 8 5 9 2 5 -9 -10 -26 15 -15 31 13 7 14 10 35 7 50 -5 20 -4 23 6 13 18
-18 34 -16 20 1 -9 11 -10 20 -1 36 6 11 9 24 6 29 -3 5 7 19 23 32 27 23 67
87 59 95 -2 2 -34 -36 -70 -84z"/>
<path d="M675 1708 c-18 -26 -39 -97 -31 -105 3 -3 8 6 12 21 3 14 10 26 15
26 5 0 9 6 9 14 0 27 58 55 71 34 4 -6 15 -8 25 -5 15 3 11 8 -18 20 -49 22
-64 21 -83 -5z"/>
<path d="M242 1684 c-8 -8 -15 -29 -17 -47 -3 -30 -3 -31 7 -7 5 14 14 33 20
43 12 24 7 29 -10 11z"/>
<path d="M527 1679 c10 -35 52 -115 52 -98 2 33 -30 119 -43 119 -9 0 -12 -7
-9 -21z"/>
<path d="M378 1534 c6 -12 8 -25 4 -29 -4 -5 -2 -5 5 -1 12 6 53 -43 53 -64 0
-6 5 -10 11 -8 17 6 9 20 -39 73 -25 28 -40 40 -34 29z"/>
<path d="M978 1312 c-14 -33 -18 -72 -18 -173 0 -72 5 -139 10 -150 7 -13 7
-19 0 -19 -11 0 -13 -30 -4 -54 11 -28 26 -17 22 14 -3 17 -2 30 1 30 7 0 3
301 -4 308 -3 3 0 11 6 18 6 7 9 25 7 41 -3 27 -4 26 -20 -15z"/>
<path d="M1943 1165 c0 -33 2 -45 4 -27 2 18 2 45 0 60 -2 15 -4 0 -4 -33z"/>
<path d="M1118 1013 c-30 -7 -25 -96 7 -138 35 -45 57 -49 96 -14 26 23 33 38
37 79 6 67 -6 80 -72 79 -28 -1 -59 -3 -68 -6z m122 -41 c0 -11 -10 -13 -43
-8 -44 7 -77 1 -77 -14 0 -5 29 -7 65 -7 36 1 65 1 65 -1 0 -2 -14 -17 -30
-34 -25 -25 -35 -28 -60 -23 -25 6 -29 9 -19 21 9 11 8 14 -4 14 -18 0 -29 26
-21 52 5 17 14 19 65 16 42 -2 59 -7 59 -16z"/>
</g>
</svg>
